<?xml version="1.0" encoding="UTF-8" standalone="no"?>
<!DOCTYPE svg PUBLIC "-//W3C//DTD SVG 1.1//EN" "http://www.w3.org/Graphics/SVG/1.1/DTD/svg11.dtd">
<svg viewBox="0 0 201 232" height="232.0pt" width="201.0pt" xmlns="http://www.w3.org/2000/svg" version="1.1">
<path d="M 0.00 0.00 L 201.00 0.00 L 201.00 232.00 L 0.00 232.00 L 0.00 0.00 Z" fill="#ffffff" />
<path d="M 99.82 7.67 C 100.18 12.95 98.49 19.20 100.72 24.04 C 98.08 24.02 95.44 24.00 92.80 24.01 C 94.46 20.40 94.45 16.72 94.73 12.85 C 94.09 11.92 93.46 10.98 92.82 10.04 L 94.80 10.07 C 95.90 10.23 96.54 9.75 96.72 8.61 C 97.74 8.29 98.78 7.97 99.82 7.67 Z" fill="#2f3d3e" />
<path d="M 96.72 8.61 C 96.54 9.75 95.90 10.23 94.80 10.07 C 94.99 9.10 95.63 8.62 96.72 8.61 Z" fill="#030a09" />
<path d="M 111.93 10.76 C 116.07 10.89 119.81 12.30 123.82 13.10 C 124.87 14.32 126.32 15.55 126.89 17.07 C 127.07 18.60 127.07 20.15 127.11 21.69 C 125.39 24.13 124.31 26.32 121.12 26.96 C 120.24 25.99 119.17 25.68 117.90 26.04 C 116.00 26.11 114.19 25.94 112.33 25.53 C 111.15 25.06 109.97 24.63 108.86 23.99 C 111.11 20.40 114.11 14.96 111.93 10.76 Z" fill="#2c3a38" />
<path d="M 88.99 13.87 C 90.04 16.33 90.37 18.90 90.63 21.54 C 91.31 22.04 91.99 22.53 92.67 23.03 C 91.70 23.68 90.73 24.33 89.76 24.98 C 87.54 25.05 85.51 24.81 83.43 25.79 C 82.34 25.91 81.24 26.02 80.15 26.12 C 79.71 25.12 79.32 24.10 78.97 23.07 C 80.24 20.30 82.58 19.63 85.18 18.55 C 84.81 17.55 84.43 16.55 84.04 15.55 C 82.82 16.75 81.71 17.99 80.68 19.36 C 79.74 19.06 78.80 18.75 77.85 18.44 C 78.56 17.27 79.29 16.14 80.17 15.08 C 83.09 14.04 85.91 13.87 88.99 13.87 Z" fill="#2c3b3a" />
<path d="M 118.41 14.34 C 119.64 15.58 121.34 15.96 121.09 17.99 C 120.90 20.96 119.79 24.95 115.96 24.00 C 116.36 22.52 116.88 21.07 117.40 19.62 C 117.84 17.88 118.12 16.11 118.41 14.34 Z" fill="#fdfdff" />
<path d="M 75.82 15.89 C 74.47 20.63 73.54 25.47 72.75 30.33 C 68.12 28.73 65.81 24.67 61.55 22.40 C 64.10 20.70 66.33 18.78 69.61 19.48 C 69.10 20.20 68.58 20.92 68.07 21.64 C 69.40 22.49 70.72 23.36 72.03 24.23 C 71.98 22.81 71.94 21.40 71.91 19.98 C 72.22 18.95 72.51 17.91 72.78 16.87 C 73.79 16.54 74.80 16.21 75.82 15.89 Z" fill="#2b393a" />
<path d="M 72.78 16.87 C 72.51 17.91 72.22 18.95 71.91 19.98 C 70.81 20.22 70.10 19.96 69.78 19.19 C 69.82 17.64 71.57 17.22 72.78 16.87 Z" fill="#1b1d1f" />
<path d="M 84.08 21.12 C 85.95 19.79 86.81 22.60 84.84 23.13 C 83.74 22.91 83.49 22.24 84.08 21.12 Z" fill="#c2c5c6" />
<path d="M 135.04 21.11 C 134.13 22.04 133.09 22.35 131.91 22.03 C 132.28 20.74 133.32 20.43 135.04 21.11 Z" fill="#030e0e" />
<path d="M 135.04 21.11 L 135.48 21.27 C 136.27 21.60 137.06 21.94 137.84 22.30 C 138.96 24.26 139.07 26.17 139.17 28.38 C 136.91 27.76 134.72 26.95 132.54 26.07 C 132.86 27.34 132.69 29.53 134.10 30.10 C 135.32 30.32 136.59 30.37 137.90 30.26 C 136.74 31.29 135.51 32.17 134.20 32.99 C 133.35 32.60 132.50 32.21 131.66 31.82 C 131.54 31.76 131.41 31.71 131.27 31.68 L 130.76 31.54 C 129.07 31.09 128.09 29.92 126.87 28.78 C 126.93 27.69 126.98 26.59 127.04 25.50 C 127.93 24.37 128.81 23.23 129.70 22.11 C 130.44 22.06 131.17 22.04 131.91 22.03 C 133.09 22.35 134.13 22.04 135.04 21.11 Z" fill="#2d3939" />
<path d="M 135.91 24.93 C 135.08 25.08 134.22 25.09 133.32 24.96 C 133.41 22.41 135.73 22.49 135.91 24.93 Z" fill="#dbe3e4" />
<path d="M 57.40 23.95 C 58.25 24.44 59.10 24.92 59.95 25.41 C 60.11 26.12 60.27 26.82 60.43 27.52 C 62.01 28.67 63.63 29.74 65.39 30.61 C 64.53 32.29 63.34 33.67 62.07 35.05 C 61.22 35.08 60.36 35.10 59.51 35.12 C 58.94 36.09 58.36 37.06 57.78 38.02 C 56.57 38.02 55.35 38.01 54.14 38.01 C 53.66 36.96 53.19 35.90 52.72 34.85 C 54.02 32.50 56.43 30.46 56.23 27.71 C 54.73 28.92 53.67 30.10 52.69 31.76 C 52.26 32.14 51.84 32.52 51.41 32.91 C 50.94 32.09 50.47 31.28 50.00 30.46 C 51.74 26.79 53.79 25.53 57.40 23.95 Z" fill="#2e3b3b" />
<path d="M 117.90 26.04 C 119.17 25.68 120.24 25.99 121.12 26.96 C 119.44 27.56 118.37 27.25 117.90 26.04 Z" fill="#081211" />
<path d="M 147.69 28.65 C 148.41 28.85 149.13 29.05 149.85 29.24 C 150.36 30.86 151.83 31.81 150.29 33.32 C 149.82 34.88 148.08 33.14 147.09 32.97 C 146.93 31.90 146.77 30.84 146.60 29.77 C 143.88 32.39 143.73 33.05 143.82 36.73 C 144.96 36.94 146.10 37.15 147.23 37.37 C 146.07 40.13 142.97 39.04 140.94 38.02 C 138.49 37.10 138.51 35.06 137.58 32.95 C 140.44 29.65 142.83 26.44 147.69 28.65 Z" fill="#2d3a3a" />
<path d="M 44.10 28.63 C 44.53 29.92 44.90 31.23 45.25 32.55 C 48.00 35.30 50.68 38.13 53.38 40.92 C 49.76 42.75 45.05 41.94 41.05 42.42 C 42.10 43.53 43.15 44.63 44.21 45.73 C 45.12 45.19 46.02 44.66 46.93 44.12 C 46.98 45.01 47.03 45.89 47.08 46.78 C 45.63 48.04 44.16 49.28 42.64 50.45 C 41.46 46.29 38.47 43.55 35.16 41.00 C 34.49 41.32 33.83 41.66 33.17 42.01 C 32.81 41.44 32.45 40.87 32.09 40.29 C 32.80 39.56 33.51 38.83 34.23 38.10 C 38.30 38.13 42.11 37.54 46.05 36.55 C 43.85 35.39 42.70 32.94 40.18 34.92 C 39.76 34.40 39.34 33.88 38.93 33.35 C 40.60 31.72 42.28 30.10 44.10 28.63 Z" fill="#2c3737" />
<path d="M 57.16 31.13 L 57.81 31.13 C 58.22 32.05 58.22 32.97 57.82 33.89 L 57.17 33.89 C 56.75 32.96 56.75 32.04 57.16 31.13 Z" fill="#ecf1f4" />
<path d="M 131.66 31.82 L 131.27 31.68 C 131.41 31.71 131.54 31.76 131.66 31.82 Z" fill="#000305" />
<path d="M 156.28 32.19 C 157.28 31.58 158.51 32.22 159.51 32.52 C 160.49 33.14 161.46 33.77 162.41 34.43 C 160.20 37.03 157.58 39.15 154.89 41.23 C 156.23 41.57 157.56 41.90 158.90 42.23 L 159.16 39.45 C 160.97 40.52 162.51 41.88 164.06 43.27 C 164.07 44.27 164.07 45.26 164.08 46.26 C 162.07 44.61 161.12 43.95 158.43 43.88 C 158.14 46.76 158.01 49.63 157.85 52.51 C 155.92 51.84 154.84 50.57 153.51 49.11 C 154.05 48.19 154.12 47.12 153.75 45.91 C 153.80 44.74 153.83 43.56 153.85 42.39 C 153.15 43.43 152.71 44.54 152.53 45.70 C 152.18 46.22 151.83 46.74 151.47 47.25 C 149.86 44.33 148.44 42.98 145.55 41.32 C 146.85 40.42 148.04 40.02 149.60 39.73 C 152.29 37.44 154.38 35.19 156.28 32.19 Z" fill="#2a3735" />
<path d="M 102.80 35.12 C 104.94 36.31 107.17 37.44 109.14 38.91 C 112.58 41.86 114.73 46.01 116.93 49.85 C 114.75 50.41 112.63 51.16 110.47 51.83 L 108.21 51.34 C 109.03 53.38 109.89 55.41 110.67 57.47 C 110.64 58.25 110.61 59.03 110.58 59.82 C 108.34 61.16 106.10 62.51 103.86 63.85 C 101.93 61.24 100.01 58.63 98.25 55.90 C 100.40 56.91 101.92 58.08 103.53 59.78 C 105.07 59.48 106.59 59.13 108.10 58.74 C 104.69 56.20 101.09 55.71 96.98 55.37 C 96.38 55.12 95.78 54.87 95.17 54.63 L 93.80 55.70 L 92.42 53.87 C 98.26 52.55 103.03 53.53 107.94 56.94 C 106.19 53.82 106.86 51.42 107.08 48.08 C 104.54 42.92 98.45 42.23 93.44 43.43 C 91.04 44.99 89.13 47.55 87.95 50.14 C 87.06 53.66 88.67 56.13 90.63 58.83 C 91.54 57.90 92.45 56.95 93.39 56.06 C 94.79 56.20 96.19 56.34 97.58 56.48 C 96.49 57.81 95.39 59.15 94.30 60.49 C 92.91 60.60 91.51 60.72 90.12 60.84 C 87.96 58.45 85.88 56.49 85.71 53.04 C 84.62 47.94 89.36 43.75 92.91 40.87 C 95.37 38.65 98.49 38.75 101.49 39.66 C 105.31 41.23 107.35 44.44 109.61 47.68 C 110.34 46.80 111.07 45.92 111.80 45.04 C 108.39 38.22 100.59 33.97 93.04 36.15 C 89.08 37.07 85.62 40.57 82.57 43.12 C 84.13 40.67 85.51 38.46 88.24 37.17 C 92.36 34.31 98.02 34.50 102.80 35.12 Z" fill="#a4a775" />
<path d="M 93.04 36.15 C 100.59 33.97 108.39 38.22 111.80 45.04 C 111.07 45.92 110.34 46.80 109.61 47.68 C 107.35 44.44 105.31 41.23 101.49 39.66 C 98.49 38.75 95.37 38.65 92.91 40.87 C 89.36 43.75 84.62 47.94 85.71 53.04 C 85.88 56.49 87.96 58.45 90.12 60.84 C 91.51 60.72 92.91 60.60 94.30 60.49 C 95.39 59.15 96.49 57.81 97.58 56.48 C 96.19 56.34 94.79 56.20 93.39 56.06 L 93.80 55.70 L 95.17 54.63 C 95.78 54.87 96.38 55.12 96.98 55.37 C 101.09 55.71 104.69 56.20 108.10 58.74 C 106.59 59.13 105.07 59.48 103.53 59.78 C 101.92 58.08 100.40 56.91 98.25 55.90 C 100.01 58.63 101.93 61.24 103.86 63.85 C 106.10 62.51 108.34 61.16 110.58 59.82 C 111.15 60.65 111.71 61.49 112.28 62.32 C 110.28 64.14 108.54 66.18 106.52 67.99 C 106.50 67.02 106.41 66.07 106.25 65.13 C 104.77 64.43 103.24 63.93 101.69 63.43 C 99.39 62.78 97.38 61.91 94.99 62.83 C 92.31 63.65 90.79 63.80 88.13 62.82 C 86.25 61.77 83.41 61.51 81.92 60.01 C 80.98 55.99 80.78 51.77 80.43 47.66 C 80.69 45.89 81.62 44.57 82.57 43.12 C 85.62 40.57 89.08 37.07 93.04 36.15 Z" fill="#f6fae1" />
<path d="M 93.44 43.43 C 98.45 42.23 104.54 42.92 107.08 48.08 C 106.86 51.42 106.19 53.82 107.94 56.94 C 103.03 53.53 98.26 52.55 92.42 53.87 L 93.80 55.70 L 93.39 56.06 C 92.45 56.95 91.54 57.90 90.63 58.83 C 88.67 56.13 87.06 53.66 87.95 50.14 C 89.13 47.55 91.04 44.99 93.44 43.43 Z" fill="#fefefd" />
<path d="M 153.12 46.11 L 153.75 45.91 C 154.12 47.12 154.05 48.19 153.51 49.11 L 153.02 48.83 C 152.69 47.86 152.72 46.95 153.12 46.11 Z" fill="#0b1514" />
<path d="M 80.43 47.66 C 80.78 51.77 80.98 55.99 81.92 60.01 C 83.41 61.51 86.25 61.77 88.13 62.82 C 90.42 64.59 93.37 65.63 94.22 68.62 C 94.48 70.79 94.63 72.97 94.75 75.16 C 97.43 74.90 99.87 74.43 102.34 73.33 C 103.30 74.51 104.23 75.71 105.17 76.90 C 100.14 75.93 95.93 76.22 90.94 76.98 C 81.47 76.99 71.96 77.23 62.49 76.75 C 62.51 78.53 62.52 80.30 62.53 82.08 L 63.41 82.20 C 70.65 84.15 77.80 82.47 85.10 83.90 C 87.25 84.38 89.02 83.58 91.02 82.92 C 95.80 90.73 93.33 98.73 92.06 107.14 L 91.30 107.28 L 88.08 106.36 C 88.93 105.40 89.78 104.43 90.63 103.47 C 90.76 100.23 92.29 96.99 89.66 94.44 C 90.14 93.94 90.62 93.43 91.10 92.93 C 90.93 89.59 90.79 87.72 88.35 85.29 L 87.87 86.82 C 83.20 86.88 78.64 86.16 74.00 85.69 C 69.54 85.26 64.93 86.27 60.53 85.54 C 60.18 82.61 60.45 79.54 60.58 76.59 C 63.72 76.06 66.79 75.49 69.98 75.78 C 76.15 76.27 82.20 76.21 88.37 75.75 C 87.91 74.21 87.47 72.65 86.92 71.13 L 85.94 70.34 C 87.54 70.10 90.24 70.86 90.86 68.95 C 88.76 67.27 85.66 66.74 83.11 66.01 C 82.07 63.38 80.59 60.77 79.96 58.01 C 79.46 54.64 79.96 51.02 80.43 47.66 Z" fill="#bdbb92" />
<path d="M 116.93 49.85 C 118.62 52.31 120.42 54.68 122.20 57.07 C 121.07 57.41 119.93 57.73 118.79 58.04 C 117.44 58.21 116.10 58.33 114.75 58.45 C 114.62 59.23 114.49 60.01 114.37 60.79 C 113.66 61.29 112.97 61.80 112.28 62.32 C 111.71 61.49 111.15 60.65 110.58 59.82 C 110.61 59.03 110.64 58.25 110.67 57.47 C 110.80 56.40 110.94 55.34 111.09 54.27 C 112.52 54.10 113.94 53.92 115.37 53.75 C 113.74 53.09 112.12 52.43 110.47 51.83 C 112.63 51.16 114.75 50.41 116.93 49.85 Z" fill="#d1d6a7" />
<path d="M 108.21 51.34 L 110.47 51.83 C 112.12 52.43 113.74 53.09 115.37 53.75 C 113.94 53.92 112.52 54.10 111.09 54.27 C 110.94 55.34 110.80 56.40 110.67 57.47 C 109.89 55.41 109.03 53.38 108.21 51.34 Z" fill="#f5f8cc" />
<path d="M 116.21 55.14 L 116.94 54.72 L 117.67 55.12 L 117.67 55.93 L 116.94 56.34 L 116.21 55.95 L 116.21 55.14 Z" fill="#f9ffda" />
<path d="M 118.79 58.04 C 118.35 58.49 117.92 58.95 117.48 59.40 C 115.25 61.68 113.19 64.12 111.01 66.44 C 109.46 68.42 109.01 70.62 108.39 73.00 C 108.02 71.64 107.59 70.29 107.11 68.96 C 106.10 71.28 105.65 73.24 105.57 75.76 C 106.29 75.79 107.02 75.82 107.74 75.84 C 110.17 75.92 112.61 75.96 115.04 76.00 C 116.47 76.04 117.90 76.05 119.34 76.03 C 114.75 77.12 109.86 77.13 105.17 76.90 C 104.23 75.71 103.30 74.51 102.34 73.33 C 102.20 72.19 102.07 71.05 101.95 69.91 C 103.51 69.34 105.05 68.76 106.52 67.99 C 108.54 66.18 110.28 64.14 112.28 62.32 C 112.97 61.80 113.66 61.29 114.37 60.79 C 114.49 60.01 114.62 59.23 114.75 58.45 C 116.10 58.33 117.44 58.21 118.79 58.04 Z" fill="#9c9e7d" />
<path d="M 118.79 58.04 C 121.22 58.43 123.34 58.06 125.36 59.62 C 123.47 59.51 121.59 59.30 119.71 59.04 C 120.43 59.92 121.14 60.79 121.85 61.66 C 124.68 61.48 126.38 60.82 128.10 63.83 C 126.60 63.29 125.11 62.74 123.62 62.17 C 123.45 63.13 123.28 64.09 123.10 65.05 C 124.81 65.21 126.51 65.38 128.22 65.57 C 128.67 66.32 129.13 67.07 129.60 67.81 C 127.61 67.04 125.61 66.40 123.52 65.97 C 125.13 68.94 126.36 69.22 129.55 69.79 C 129.52 71.32 129.42 72.76 129.77 74.26 L 132.01 74.43 C 130.47 75.44 130.28 76.34 129.91 78.07 L 129.75 76.80 C 128.42 75.56 127.09 74.58 125.34 74.01 C 125.17 75.10 125.02 76.19 124.89 77.28 L 124.75 78.43 C 124.16 79.77 126.44 81.47 126.76 79.60 L 125.53 78.42 C 126.46 78.70 127.39 78.98 128.31 79.28 C 127.62 79.90 126.93 80.52 126.23 81.14 C 126.25 81.70 126.26 82.26 126.27 82.82 C 124.12 83.92 124.57 84.92 124.16 87.02 C 123.36 88.30 122.74 89.65 122.15 91.03 C 121.74 90.81 121.34 90.59 120.93 90.37 C 120.55 89.29 120.15 88.21 119.73 87.15 C 118.89 89.49 118.55 91.89 118.30 94.35 C 117.94 93.37 117.58 92.38 117.23 91.40 L 116.38 91.44 C 116.30 93.31 116.43 95.06 115.56 96.78 C 114.69 96.27 113.83 95.76 112.97 95.25 C 112.72 96.01 112.48 96.78 112.23 97.54 C 111.84 96.93 111.45 96.33 111.05 95.72 C 109.32 95.53 107.68 95.84 105.99 96.14 L 106.22 95.59 C 106.91 95.25 107.60 94.92 108.30 94.60 C 111.52 92.78 117.38 91.51 117.31 86.95 C 115.51 86.58 113.71 86.30 111.88 86.20 C 112.64 85.19 113.41 84.18 114.18 83.17 C 112.22 82.74 110.28 82.29 108.31 81.92 C 111.38 81.19 113.97 80.82 116.48 83.15 C 117.22 84.09 117.93 85.06 118.64 86.02 C 119.32 83.83 120.08 81.68 121.00 79.58 C 121.67 78.02 122.32 76.47 122.77 74.84 C 123.22 74.49 123.67 74.15 124.13 73.82 C 124.20 68.47 121.73 62.72 117.48 59.40 C 117.92 58.95 118.35 58.49 118.79 58.04 Z" fill="#787650" />
<path d="M 117.48 59.40 C 121.73 62.72 124.20 68.47 124.13 73.82 C 123.67 74.15 123.22 74.49 122.77 74.84 C 121.65 75.31 120.50 75.70 119.34 76.03 C 117.90 76.05 116.47 76.04 115.04 76.00 C 113.53 75.08 111.06 73.96 110.73 72.05 C 110.66 70.20 110.88 68.30 111.01 66.44 C 113.19 64.12 115.25 61.68 117.48 59.40 Z" fill="#fffffe" />
<path d="M 88.13 62.82 C 90.79 63.80 92.31 63.65 94.99 62.83 C 97.38 61.91 99.39 62.78 101.69 63.43 C 101.62 64.79 101.56 66.15 101.49 67.52 C 98.97 67.35 97.10 67.66 94.71 68.49 L 94.22 68.62 C 93.37 65.63 90.42 64.59 88.13 62.82 Z" fill="#707759" />
<path d="M 101.69 63.43 C 103.24 63.93 104.77 64.43 106.25 65.13 C 106.41 66.07 106.50 67.02 106.52 67.99 C 105.05 68.76 103.51 69.34 101.95 69.91 C 99.56 69.34 97.14 68.86 94.71 68.49 C 97.10 67.66 98.97 67.35 101.49 67.52 C 101.56 66.15 101.62 64.79 101.69 63.43 Z" fill="#b8b788" />
<path d="M 83.11 66.01 C 85.66 66.74 88.76 67.27 90.86 68.95 C 90.24 70.86 87.54 70.10 85.94 70.34 C 84.24 69.32 83.86 67.71 83.11 66.01 Z" fill="#878d6c" />
<path d="M 111.01 66.44 C 110.88 68.30 110.66 70.20 110.73 72.05 C 111.06 73.96 113.53 75.08 115.04 76.00 C 112.61 75.96 110.17 75.92 107.74 75.84 L 108.39 73.00 C 109.01 70.62 109.46 68.42 111.01 66.44 Z" fill="#dce0cd" />
<path d="M 94.22 68.62 L 94.71 68.49 C 97.14 68.86 99.56 69.34 101.95 69.91 C 102.07 71.05 102.20 72.19 102.34 73.33 C 99.87 74.43 97.43 74.90 94.75 75.16 C 94.63 72.97 94.48 70.79 94.22 68.62 Z" fill="#f7fce5" />
<path d="M 107.11 68.96 C 107.59 70.29 108.02 71.64 108.39 73.00 L 107.74 75.84 C 107.02 75.82 106.29 75.79 105.57 75.76 C 105.65 73.24 106.10 71.28 107.11 68.96 Z" fill="#5d5d48" />
<path d="M 124.98 69.30 C 126.97 70.44 129.43 70.03 129.06 73.02 C 128.01 73.39 126.97 73.53 125.94 73.46 L 125.25 73.20 C 125.14 71.90 125.05 70.60 124.98 69.30 Z" fill="#ecf2cc" />
<path d="M 125.34 74.01 C 127.09 74.58 128.42 75.56 129.75 76.80 C 128.13 76.94 126.51 77.10 124.89 77.28 C 125.02 76.19 125.17 75.10 125.34 74.01 Z" fill="#eeefc8" />
<path d="M 132.01 74.43 L 132.68 74.42 C 133.46 75.94 134.08 77.45 136.12 77.24 L 136.10 77.87 C 135.78 79.40 135.41 81.11 137.02 82.04 C 136.69 83.24 136.37 84.44 136.05 85.63 C 134.75 85.62 133.45 85.60 132.15 85.62 C 132.78 84.82 133.41 84.02 134.03 83.22 C 132.78 82.74 131.53 82.26 130.28 81.78 C 130.16 80.54 130.03 79.31 129.91 78.07 C 130.28 76.34 130.47 75.44 132.01 74.43 Z" fill="#f3f8e1" />
<path d="M 132.68 74.42 C 134.61 74.15 136.29 75.13 136.12 77.24 C 134.08 77.45 133.46 75.94 132.68 74.42 Z" fill="#c2c2bc" />
<path d="M 122.77 74.84 C 122.32 76.47 121.67 78.02 121.00 79.58 C 119.45 80.72 117.96 81.92 116.48 83.15 C 113.97 80.82 111.38 81.19 108.31 81.92 C 106.82 82.22 105.34 82.62 103.87 83.00 C 104.59 83.67 105.31 84.34 106.03 85.01 C 104.87 84.64 103.70 84.28 102.54 83.92 C 101.28 89.74 103.12 94.56 104.01 100.19 C 103.09 106.23 104.73 111.99 103.98 118.00 C 103.21 125.41 104.39 132.55 106.08 139.73 C 105.83 140.02 105.57 140.30 105.32 140.58 C 101.21 140.09 97.44 138.93 93.47 137.86 C 91.98 129.88 92.84 122.03 92.36 114.00 C 92.29 112.06 91.81 110.23 91.23 108.40 C 90.14 108.66 89.04 108.91 87.95 109.16 C 86.89 109.19 85.83 109.22 84.77 109.23 C 85.40 108.17 86.04 107.12 86.69 106.07 C 88.39 107.17 89.23 107.89 91.30 107.28 L 92.06 107.14 C 93.33 98.73 95.80 90.73 91.02 82.92 C 87.34 81.96 83.77 82.01 80.00 81.99 C 74.46 82.03 68.94 81.85 63.41 82.20 L 62.53 82.08 C 62.52 80.30 62.51 78.53 62.49 76.75 C 71.96 77.23 81.47 76.99 90.94 76.98 C 95.93 76.22 100.14 75.93 105.17 76.90 C 109.86 77.13 114.75 77.12 119.34 76.03 C 120.50 75.70 121.65 75.31 122.77 74.84 Z" fill="#f7fce7" />
<path d="M 124.89 77.28 C 126.51 77.10 128.13 76.94 129.75 76.80 L 129.91 78.07 C 130.03 79.31 130.16 80.54 130.28 81.78 C 131.53 82.26 132.78 82.74 134.03 83.22 C 133.41 84.02 132.78 84.82 132.15 85.62 C 129.41 85.64 126.78 86.25 124.16 87.02 C 124.57 84.92 124.12 83.92 126.27 82.82 C 126.26 82.26 126.25 81.70 126.23 81.14 C 126.93 80.52 127.62 79.90 128.31 79.28 C 127.39 78.98 126.46 78.70 125.53 78.42 L 124.75 78.43 L 124.89 77.28 Z" fill="#c2c499" />
<path d="M 124.75 78.43 L 125.53 78.42 L 126.76 79.60 C 126.44 81.47 124.16 79.77 124.75 78.43 Z" fill="#f8f8cd" />
<path d="M 136.10 77.87 C 137.17 79.15 137.61 80.42 137.02 82.04 C 135.41 81.11 135.78 79.40 136.10 77.87 Z" fill="#b1b3a9" />
<path d="M 121.00 79.58 C 120.08 81.68 119.32 83.83 118.64 86.02 C 117.93 85.06 117.22 84.09 116.48 83.15 C 117.96 81.92 119.45 80.72 121.00 79.58 Z" fill="#c8cfab" />
<path d="M 123.45 80.99 C 124.99 79.91 126.21 82.43 124.29 82.78 C 123.48 82.39 123.20 81.79 123.45 80.99 Z" fill="#feffcd" />
<path d="M 63.41 82.20 C 68.94 81.85 74.46 82.03 80.00 81.99 C 83.77 82.01 87.34 81.96 91.02 82.92 C 89.02 83.58 87.25 84.38 85.10 83.90 C 77.80 82.47 70.65 84.15 63.41 82.20 Z" fill="#989d79" />
<path d="M 108.31 81.92 C 110.28 82.29 112.22 82.74 114.18 83.17 C 113.41 84.18 112.64 85.19 111.88 86.20 C 110.99 86.39 110.11 86.60 109.22 86.82 C 108.94 89.42 108.62 92.01 108.30 94.60 C 107.60 94.92 106.91 95.25 106.22 95.59 L 105.99 96.14 C 105.89 97.66 105.86 99.16 105.81 100.68 C 105.21 100.52 104.61 100.36 104.01 100.19 C 103.12 94.56 101.28 89.74 102.54 83.92 C 103.70 84.28 104.87 84.64 106.03 85.01 C 105.31 84.34 104.59 83.67 103.87 83.00 C 105.34 82.62 106.82 82.22 108.31 81.92 Z" fill="#919063" />
<path d="M 123.12 82.54 C 123.62 84.22 123.59 85.79 123.03 87.23 C 122.11 87.11 121.21 86.77 120.35 86.23 C 120.04 84.48 121.51 82.97 123.12 82.54 Z" fill="#e7ecbb" />
<path d="M 135.27 83.37 C 135.95 83.92 135.95 83.92 135.27 83.37 Z" fill="#bcbfa8" />
<path d="M 88.35 85.29 C 90.79 87.72 90.93 89.59 91.10 92.93 C 90.62 93.43 90.14 93.94 89.66 94.44 L 87.99 96.17 C 87.98 93.05 87.86 89.94 87.87 86.82 L 88.35 85.29 Z" fill="#9a9a60" />
<path d="M 111.88 86.20 C 113.71 86.30 115.51 86.58 117.31 86.95 C 117.38 91.51 111.52 92.78 108.30 94.60 C 108.62 92.01 108.94 89.42 109.22 86.82 C 110.11 86.60 110.99 86.39 111.88 86.20 Z" fill="#fdfbfd" />
<path d="M 113.39 93.17 C 114.41 92.94 114.87 93.13 114.78 93.72 C 114.29 94.93 111.94 95.95 111.13 94.55 C 111.69 93.90 112.44 93.44 113.39 93.17 Z" fill="#d5dcb8" />
<path d="M 105.99 96.14 C 107.68 95.84 109.32 95.53 111.05 95.72 C 111.45 96.33 111.84 96.93 112.23 97.54 C 112.48 96.78 112.72 96.01 112.97 95.25 C 113.83 95.76 114.69 96.27 115.56 96.78 C 112.78 98.55 109.58 99.96 107.08 102.13 C 105.99 107.62 104.91 113.44 105.68 119.00 C 106.62 124.61 106.01 130.25 107.04 135.85 C 107.40 137.52 106.98 138.30 106.08 139.73 C 104.39 132.55 103.21 125.41 103.98 118.00 C 104.73 111.99 103.09 106.23 104.01 100.19 C 104.61 100.36 105.21 100.52 105.81 100.68 C 105.86 99.16 105.89 97.66 105.99 96.14 Z" fill="#b9bb96" />
<path d="M 87.95 109.16 C 89.04 108.91 90.14 108.66 91.23 108.40 C 91.81 110.23 92.29 112.06 92.36 114.00 C 92.84 122.03 91.98 129.88 93.47 137.86 C 97.44 138.93 101.21 140.09 105.32 140.58 L 107.12 140.32 L 107.64 141.63 C 106.49 141.86 105.35 142.08 104.21 142.31 C 103.80 143.20 103.39 144.10 102.98 145.00 C 102.68 143.65 102.11 142.44 100.83 141.78 L 99.71 142.70 L 99.34 143.04 C 98.65 142.02 96.90 140.77 95.66 141.39 C 94.65 141.60 94.34 142.41 94.74 143.81 C 93.72 143.65 93.18 144.00 93.11 144.86 C 93.93 146.66 95.72 145.39 94.74 143.81 C 97.08 146.35 99.96 147.43 103.18 148.41 C 103.80 147.73 104.43 147.05 105.05 146.36 C 105.98 147.71 106.91 149.05 107.84 150.39 C 109.70 148.42 110.44 145.03 113.76 147.04 C 112.47 147.38 111.19 147.78 109.91 148.18 C 110.90 150.85 113.15 151.30 115.28 152.77 C 118.00 154.45 119.92 157.15 119.95 160.42 C 117.20 156.03 114.34 152.37 109.10 150.95 C 108.52 155.66 108.46 160.46 108.72 165.19 C 109.03 167.31 109.62 169.33 110.20 171.39 C 109.11 171.05 108.01 170.71 106.92 170.38 C 105.03 165.50 106.08 160.50 104.57 155.63 L 104.23 154.20 C 104.67 153.00 105.13 151.80 105.61 150.62 C 101.13 148.11 96.35 147.66 91.35 147.20 C 90.96 146.61 90.57 146.01 90.19 145.41 C 88.82 142.77 87.22 141.90 84.60 140.71 C 85.33 140.13 86.06 139.55 86.79 138.98 C 86.04 138.22 85.29 137.46 84.54 136.70 C 84.16 137.72 83.77 138.73 83.38 139.74 C 81.44 137.84 79.51 135.92 77.64 133.94 C 78.37 133.49 79.09 133.03 79.81 132.58 C 79.80 130.96 79.78 129.33 79.76 127.70 C 78.89 129.24 78.03 130.78 77.16 132.32 C 76.96 131.25 76.76 130.18 76.56 129.10 C 77.57 127.34 78.43 125.55 79.20 123.67 C 78.04 124.72 76.90 125.80 75.76 126.88 C 75.93 125.44 76.10 124.00 76.28 122.56 C 77.63 121.74 78.98 120.92 80.32 120.10 C 78.78 120.25 77.23 120.38 75.68 120.52 C 77.89 118.10 80.66 117.19 83.38 115.50 C 81.56 115.51 79.73 115.51 77.91 115.51 C 79.41 113.46 83.02 113.49 85.35 112.74 C 83.94 112.28 82.54 111.81 81.14 111.34 C 82.93 110.04 84.47 110.30 86.59 110.37 C 87.04 109.97 87.49 109.56 87.95 109.16 Z" fill="#8d8f69" />
<path d="M 88.00 113.93 C 89.70 113.84 91.37 113.65 91.30 115.92 C 91.62 120.70 91.15 125.29 90.74 130.02 C 90.56 132.38 90.53 134.78 90.19 137.10 C 89.29 137.33 88.38 137.15 87.48 136.54 C 83.89 134.42 82.03 129.67 81.13 125.80 C 80.07 122.48 82.47 119.72 84.11 117.08 C 85.31 115.61 85.78 113.87 88.00 113.93 Z" fill="#fefefd" />
<path d="M 41.20 130.00 C 45.51 130.60 47.03 134.39 49.73 137.28 C 51.85 140.00 54.89 141.53 56.13 144.62 C 55.19 146.02 54.29 147.45 53.41 148.89 C 54.14 149.70 54.87 150.50 55.59 151.31 C 56.26 156.23 59.62 158.75 62.99 161.92 C 66.30 164.62 69.44 167.26 73.64 168.46 C 74.18 169.11 74.71 169.76 75.25 170.41 C 78.46 170.59 81.52 170.96 84.67 170.01 C 86.05 166.73 87.82 163.77 88.59 160.25 C 89.51 160.56 90.42 160.87 91.34 161.18 C 90.38 164.05 90.23 166.93 90.03 169.92 C 87.81 172.12 86.18 172.87 83.01 173.00 C 76.91 173.16 70.12 171.65 65.30 167.72 C 62.32 165.41 59.14 164.05 57.16 160.81 C 55.67 158.45 53.93 156.50 51.91 154.59 C 51.69 154.23 51.48 153.86 51.28 153.50 C 50.90 152.32 50.55 151.15 50.21 149.96 L 50.16 149.69 L 50.09 149.59 L 49.48 148.42 C 50.64 146.84 51.88 145.31 53.10 143.78 C 52.38 142.92 51.72 141.91 50.82 141.25 C 49.43 141.29 48.03 141.60 46.67 141.83 C 45.22 138.63 43.97 135.39 42.06 132.42 C 42.50 135.47 43.20 138.46 43.96 141.44 C 43.39 141.90 42.81 142.36 42.23 142.82 C 42.66 144.36 42.95 146.00 43.62 147.45 C 45.62 149.16 47.68 150.70 49.44 152.68 C 47.93 152.14 46.40 151.67 44.85 151.27 C 43.66 150.97 42.45 150.71 41.25 150.44 C 40.07 143.99 39.80 136.43 41.20 130.00 Z" fill="#98997b" />
<path d="M 155.87 131.16 C 155.76 133.76 155.30 136.31 155.37 138.92 C 155.12 141.13 154.68 143.30 153.80 145.36 L 151.60 146.29 C 152.66 142.41 153.82 138.56 154.92 134.69 C 149.72 137.63 146.54 142.48 141.02 144.73 C 142.59 145.86 144.15 147.00 145.73 148.11 C 145.46 150.26 145.41 152.24 144.05 154.04 C 140.87 158.41 137.56 162.52 132.90 165.39 C 134.96 162.21 137.71 159.80 140.20 156.99 C 139.45 156.64 138.71 156.30 137.96 155.96 C 140.00 154.18 141.17 151.92 142.27 149.50 C 141.57 147.75 140.91 145.98 140.27 144.21 C 143.33 139.36 148.06 136.96 152.03 133.04 C 153.03 132.37 154.62 130.37 155.87 131.16 Z" fill="#888c72" />
<path d="M 42.06 132.42 C 43.97 135.39 45.22 138.63 46.67 141.83 C 47.68 144.00 48.57 146.21 49.48 148.42 L 50.09 149.59 L 50.21 149.96 C 50.55 151.15 50.90 152.32 51.28 153.50 C 50.67 153.23 50.05 152.96 49.44 152.68 C 47.68 150.70 45.62 149.16 43.62 147.45 C 42.95 146.00 42.66 144.36 42.23 142.82 C 42.81 142.36 43.39 141.90 43.96 141.44 C 43.20 138.46 42.50 135.47 42.06 132.42 Z" fill="#f2f3de" />
<path d="M 80.95 133.13 C 82.48 133.35 82.39 135.63 80.95 135.93 C 80.53 135.00 80.53 134.07 80.95 133.13 Z" fill="#f0f8cd" />
<path d="M 96.82 135.37 C 98.43 134.60 99.38 136.74 99.64 138.00 C 98.07 138.19 95.59 137.28 96.82 135.37 Z" fill="#adb495" />
<path d="M 154.92 134.69 C 153.82 138.56 152.66 142.41 151.60 146.29 C 148.12 151.02 145.37 156.22 141.96 160.99 C 139.22 164.30 135.78 167.80 132.60 170.70 C 130.25 171.97 127.55 172.34 125.29 173.88 C 122.03 174.70 118.78 175.50 115.62 176.70 L 115.19 176.80 C 111.30 177.21 107.47 176.92 103.62 176.30 C 104.88 177.06 106.14 177.80 107.42 178.52 C 105.67 178.45 103.92 178.44 102.17 178.44 C 101.74 177.39 101.30 176.32 100.91 175.25 C 102.23 167.14 102.01 159.06 101.14 150.91 C 101.81 150.56 102.49 150.20 103.16 149.85 C 103.52 151.30 103.88 152.75 104.23 154.20 L 104.57 155.63 C 106.08 160.50 105.03 165.50 106.92 170.38 L 107.36 171.71 C 109.08 171.88 110.80 171.96 112.52 172.12 C 113.85 172.45 114.86 172.40 116.17 172.02 C 119.37 171.86 122.08 171.81 124.53 169.46 C 124.91 169.17 125.29 168.88 125.67 168.59 C 126.41 168.39 127.14 168.19 127.88 167.99 C 129.93 167.55 131.34 166.74 132.90 165.39 C 137.56 162.52 140.87 158.41 144.05 154.04 C 145.41 152.24 145.46 150.26 145.73 148.11 C 144.15 147.00 142.59 145.86 141.02 144.73 C 146.54 142.48 149.72 137.63 154.92 134.69 Z" fill="#f5fbe5" />
<path d="M 87.24 137.72 C 88.35 138.22 89.46 138.72 90.57 139.23 C 92.04 139.92 93.44 140.72 94.82 141.59 C 93.17 142.05 91.52 142.49 89.87 142.93 C 89.43 142.10 88.99 141.28 88.56 140.45 C 88.11 139.54 87.67 138.64 87.24 137.72 Z" fill="#e6eac8" />
<path d="M 155.37 138.92 C 155.70 142.20 155.76 145.34 154.98 148.57 C 151.59 150.46 150.67 151.88 149.34 155.47 C 148.70 155.48 148.07 155.48 147.43 155.48 C 147.48 156.16 147.54 156.83 147.59 157.50 C 143.86 165.18 139.01 172.00 132.96 178.01 C 128.35 182.20 122.89 185.27 118.34 189.49 C 115.35 192.18 111.58 194.01 108.20 196.17 C 105.90 197.72 103.37 197.92 100.68 198.08 C 101.40 196.77 101.40 195.40 101.32 193.95 C 99.54 195.05 99.14 196.06 99.40 198.12 L 96.96 198.06 C 97.20 196.61 97.44 195.17 97.68 193.72 C 95.99 194.91 94.28 196.08 92.53 197.18 C 92.74 195.67 93.09 194.20 93.52 192.74 C 91.73 193.79 89.93 194.81 88.13 195.84 C 86.45 195.00 84.73 194.18 83.11 193.23 C 83.82 192.66 84.53 192.09 85.23 191.52 C 83.47 190.61 81.88 189.59 80.31 188.39 C 81.22 187.92 82.14 187.45 83.05 186.98 C 80.61 187.29 78.19 187.66 75.76 188.07 C 68.08 181.03 58.73 173.74 53.21 164.79 C 50.21 160.36 47.19 156.10 44.85 151.27 C 46.40 151.67 47.93 152.14 49.44 152.68 C 50.05 152.96 50.67 153.23 51.28 153.50 C 51.48 153.86 51.69 154.23 51.91 154.59 C 53.78 157.94 55.90 160.93 57.16 164.59 C 57.96 166.81 58.58 169.84 60.46 171.39 C 62.45 173.17 64.60 174.77 66.71 176.41 C 66.59 175.44 66.81 174.14 66.30 173.30 C 64.60 171.84 62.24 171.11 60.59 169.55 C 59.96 168.17 59.52 166.70 59.01 165.27 C 61.68 166.12 62.30 166.77 63.70 169.12 C 66.64 170.11 69.33 171.42 72.01 172.97 C 75.44 174.92 79.08 175.81 82.81 176.94 C 84.20 177.61 85.59 178.40 87.03 178.91 C 89.43 179.10 92.05 177.92 94.30 177.18 L 94.64 177.06 C 97.34 177.50 98.75 176.90 100.91 175.25 C 101.30 176.32 101.74 177.39 102.17 178.44 C 103.92 178.44 105.67 178.45 107.42 178.52 C 109.49 178.66 111.56 178.73 113.63 178.80 C 114.14 178.12 114.66 177.46 115.19 176.80 L 115.62 176.70 C 119.58 176.87 122.15 176.46 125.29 173.88 C 127.55 172.34 130.25 171.97 132.60 170.70 C 135.78 167.80 139.22 164.30 141.96 160.99 C 145.37 156.22 148.12 151.02 151.60 146.29 L 153.80 145.36 C 154.68 143.30 155.12 141.13 155.37 138.92 Z" fill="#d2d1a6" />
<path d="M 50.82 141.25 C 51.72 141.91 52.38 142.92 53.10 143.78 C 51.88 145.31 50.64 146.84 49.48 148.42 C 48.57 146.21 47.68 144.00 46.67 141.83 C 48.03 141.60 49.43 141.29 50.82 141.25 Z" fill="#6f704e" />
<path d="M 95.66 141.39 C 96.42 142.46 97.00 143.47 98.35 143.86 L 99.34 143.04 L 99.71 142.70 C 100.09 144.32 101.42 145.00 102.98 145.00 C 103.39 144.10 103.80 143.20 104.21 142.31 C 105.35 142.08 106.49 141.86 107.64 141.63 C 108.21 143.09 108.83 144.52 109.46 145.95 C 108.93 147.43 108.39 148.91 107.84 150.39 C 106.91 149.05 105.98 147.71 105.05 146.36 C 104.43 147.05 103.80 147.73 103.18 148.41 C 99.96 147.43 97.08 146.35 94.74 143.81 C 94.34 142.41 94.65 141.60 95.66 141.39 Z" fill="#bfc492" />
<path d="M 95.66 141.39 C 96.90 140.77 98.65 142.02 99.34 143.04 L 98.35 143.86 C 97.00 143.47 96.42 142.46 95.66 141.39 Z" fill="#f6f8ca" />
<path d="M 100.83 141.78 C 102.11 142.44 102.68 143.65 102.98 145.00 C 101.42 145.00 100.09 144.32 99.71 142.70 L 100.83 141.78 Z" fill="#ebf0bf" />
<path d="M 94.74 143.81 C 95.72 145.39 93.93 146.66 93.11 144.86 C 93.18 144.00 93.72 143.65 94.74 143.81 Z" fill="#d2d49b" />
<path d="M 90.19 145.41 C 90.57 146.01 90.96 146.61 91.35 147.20 C 96.35 147.66 101.13 148.11 105.61 150.62 C 105.13 151.80 104.67 153.00 104.23 154.20 C 103.88 152.75 103.52 151.30 103.16 149.85 C 102.49 150.20 101.81 150.56 101.14 150.91 C 99.64 150.31 98.14 149.71 96.63 149.16 C 96.78 150.84 97.01 152.50 97.22 154.18 C 95.60 156.66 94.95 159.37 94.42 162.26 C 96.04 162.34 97.66 162.42 99.29 162.49 L 97.02 163.26 C 96.04 163.58 95.06 163.90 94.07 164.21 C 93.98 162.05 93.89 159.90 93.79 157.74 C 92.96 158.88 92.14 160.02 91.34 161.18 C 90.42 160.87 89.51 160.56 88.59 160.25 C 90.32 154.99 90.91 151.01 90.19 145.41 Z" fill="#d1cea3" />
<path d="M 113.76 147.04 C 117.43 148.75 119.75 151.67 121.79 155.05 L 121.36 155.34 L 121.64 155.76 L 122.07 155.47 C 123.12 157.02 124.22 158.53 125.33 160.04 C 124.43 160.63 123.54 161.23 122.65 161.84 L 122.52 160.08 L 121.88 162.47 C 121.29 161.88 120.70 161.27 120.11 160.67 L 119.95 160.42 C 119.92 157.15 118.00 154.45 115.28 152.77 C 113.15 151.30 110.90 150.85 109.91 148.18 C 111.19 147.78 112.47 147.38 113.76 147.04 Z" fill="#c5c9a1" />
<path d="M 50.09 149.59 L 50.16 149.69 L 50.21 149.96 L 50.09 149.59 Z" fill="#524c28" />
<path d="M 96.63 149.16 C 98.14 149.71 99.64 150.31 101.14 150.91 C 102.01 159.06 102.23 167.14 100.91 175.25 C 98.75 176.90 97.34 177.50 94.64 177.06 C 97.46 175.56 97.72 175.01 98.24 171.95 L 98.02 170.57 C 99.00 170.10 99.97 169.63 100.94 169.16 C 100.50 166.90 99.96 164.69 99.29 162.49 C 97.66 162.42 96.04 162.34 94.42 162.26 C 94.95 159.37 95.60 156.66 97.22 154.18 C 97.01 152.50 96.78 150.84 96.63 149.16 Z" fill="#818e69" />
<path d="M 109.10 150.95 C 114.34 152.37 117.20 156.03 119.95 160.42 L 120.11 160.67 C 120.34 164.34 120.23 167.12 118.27 170.33 C 116.22 170.18 114.18 170.00 112.14 169.85 C 111.00 168.29 109.87 166.74 108.72 165.19 C 108.46 160.46 108.52 155.66 109.10 150.95 Z" fill="#fefefe" />
<path d="M 118.03 152.29 L 118.84 152.26 L 119.27 152.97 L 118.90 153.72 L 118.09 153.75 L 117.66 153.03 L 118.03 152.29 Z" fill="#ede7ce" />
<path d="M 98.54 153.97 C 99.25 154.04 99.95 154.10 100.66 154.17 C 100.56 156.18 100.53 158.25 100.19 160.25 C 99.30 160.86 98.24 159.21 97.47 158.81 C 97.84 157.20 98.19 155.59 98.54 153.97 Z" fill="#576544" />
<path d="M 51.91 154.59 C 53.93 156.50 55.67 158.45 57.16 160.81 C 59.14 164.05 62.32 165.41 65.30 167.72 C 70.12 171.65 76.91 173.16 83.01 173.00 C 86.18 172.87 87.81 172.12 90.03 169.92 C 90.54 169.44 91.04 168.94 91.54 168.45 C 92.10 169.53 92.66 170.62 93.22 171.71 C 94.89 171.79 96.57 171.87 98.24 171.95 C 97.72 175.01 97.46 175.56 94.64 177.06 L 94.30 177.18 C 90.47 176.97 86.64 176.97 82.81 176.94 C 79.08 175.81 75.44 174.92 72.01 172.97 C 69.33 171.42 66.64 170.11 63.70 169.12 C 62.30 166.77 61.68 166.12 59.01 165.27 C 58.40 165.03 57.78 164.81 57.16 164.59 C 55.90 160.93 53.78 157.94 51.91 154.59 Z" fill="#f7fdec" />
<path d="M 121.36 155.34 L 121.79 155.05 L 122.07 155.47 L 121.64 155.76 L 121.36 155.34 Z" fill="#757768" />
<path d="M 137.96 155.96 C 138.71 156.30 139.45 156.64 140.20 156.99 C 137.71 159.80 134.96 162.21 132.90 165.39 C 131.34 166.74 129.93 167.55 127.88 167.99 L 126.30 167.47 C 126.08 166.55 125.85 165.62 125.63 164.70 C 127.59 164.06 129.53 163.41 131.47 162.74 C 133.50 160.35 135.63 158.06 137.96 155.96 Z" fill="#a2a88b" />
<path d="M 93.79 157.74 C 93.89 159.90 93.98 162.05 94.07 164.21 C 95.06 163.90 96.04 163.58 97.02 163.26 C 97.01 164.15 97.02 165.03 97.05 165.91 C 96.31 165.43 95.56 164.96 94.81 164.50 C 95.09 166.91 95.47 169.29 96.11 171.63 C 96.61 170.41 97.07 169.18 97.48 167.93 C 97.67 168.81 97.85 169.69 98.02 170.57 L 98.24 171.95 C 96.57 171.87 94.89 171.79 93.22 171.71 C 92.66 170.62 92.10 169.53 91.54 168.45 C 91.04 168.94 90.54 169.44 90.03 169.92 C 90.23 166.93 90.38 164.05 91.34 161.18 C 92.14 160.02 92.96 158.88 93.79 157.74 Z" fill="#e7ebbd" />
<path d="M 122.52 160.08 L 122.65 161.84 C 122.77 163.04 123.07 164.23 123.33 165.40 C 123.29 166.19 123.26 166.98 123.22 167.77 C 123.95 167.71 124.69 167.66 125.42 167.60 C 125.06 165.85 124.71 164.27 125.07 162.49 L 125.63 164.70 C 125.85 165.62 126.08 166.55 126.30 167.47 L 127.88 167.99 C 127.14 168.19 126.41 168.39 125.67 168.59 C 125.29 168.88 124.91 169.17 124.53 169.46 C 122.65 169.66 120.79 169.99 118.94 170.31 L 118.27 170.33 C 120.23 167.12 120.34 164.34 120.11 160.67 C 120.70 161.27 121.29 161.88 121.88 162.47 L 122.52 160.08 Z" fill="#565941" />
<path d="M 97.02 163.26 L 99.29 162.49 C 99.96 164.69 100.50 166.90 100.94 169.16 C 99.97 169.63 99.00 170.10 98.02 170.57 C 97.85 169.69 97.67 168.81 97.48 167.93 L 97.05 165.91 C 97.02 165.03 97.01 164.15 97.02 163.26 Z" fill="#f0f7da" />
<path d="M 57.16 164.59 C 57.78 164.81 58.40 165.03 59.01 165.27 C 59.52 166.70 59.96 168.17 60.59 169.55 C 62.24 171.11 64.60 171.84 66.30 173.30 C 66.81 174.14 66.59 175.44 66.71 176.41 C 64.60 174.77 62.45 173.17 60.46 171.39 C 58.58 169.84 57.96 166.81 57.16 164.59 Z" fill="#beba96" />
<path d="M 94.81 164.50 C 95.56 164.96 96.31 165.43 97.05 165.91 L 97.48 167.93 C 97.07 169.18 96.61 170.41 96.11 171.63 C 95.47 169.29 95.09 166.91 94.81 164.50 Z" fill="#b7be8e" />
<path d="M 108.72 165.19 C 109.87 166.74 111.00 168.29 112.14 169.85 C 114.18 170.00 116.22 170.18 118.27 170.33 L 118.94 170.31 C 120.79 169.99 122.65 169.66 124.53 169.46 C 122.08 171.81 119.37 171.86 116.17 172.02 C 115.00 170.28 113.60 170.28 112.52 172.12 C 110.80 171.96 109.08 171.88 107.36 171.71 L 106.92 170.38 C 108.01 170.71 109.11 171.05 110.20 171.39 C 109.62 169.33 109.03 167.31 108.72 165.19 Z" fill="#b5b79f" />
<path d="M 116.17 172.02 C 114.86 172.40 113.85 172.45 112.52 172.12 C 113.60 170.28 115.00 170.28 116.17 172.02 Z" fill="#92967a" />
<path d="M 125.29 173.88 C 122.15 176.46 119.58 176.87 115.62 176.70 C 118.78 175.50 122.03 174.70 125.29 173.88 Z" fill="#aab090" />
<path d="M 103.62 176.30 C 107.47 176.92 111.30 177.21 115.19 176.80 C 114.66 177.46 114.14 178.12 113.63 178.80 C 111.56 178.73 109.49 178.66 107.42 178.52 C 106.14 177.80 104.88 177.06 103.62 176.30 Z" fill="#a0a77e" />
<path d="M 82.81 176.94 C 86.64 176.97 90.47 176.97 94.30 177.18 C 92.05 177.92 89.43 179.10 87.03 178.91 C 85.59 178.40 84.20 177.61 82.81 176.94 Z" fill="#afb38d" />
<path d="M 74.94 185.14 C 76.54 184.62 78.14 184.82 79.73 185.27 C 78.38 187.17 75.80 187.84 74.94 185.14 Z" fill="#a5a179" />
<path d="M 114.75 186.27 C 115.35 187.79 115.86 189.28 115.79 190.95 C 113.94 190.06 113.19 188.48 112.06 186.90 C 112.95 186.68 113.85 186.47 114.75 186.27 Z" fill="#9e9e71" />
<path d="M 117.77 186.48 C 118.98 187.42 117.71 189.98 116.66 188.09 C 116.54 186.90 116.91 186.36 117.77 186.48 Z" fill="#9c9d78" />
<path d="M 83.05 186.98 C 82.14 187.45 81.22 187.92 80.31 188.39 C 81.88 189.59 83.47 190.61 85.23 191.52 C 84.53 192.09 83.82 192.66 83.11 193.23 C 80.63 191.57 78.13 189.90 75.76 188.07 C 78.19 187.66 80.61 187.29 83.05 186.98 Z" fill="#aca986" />
<path d="M 111.09 190.44 C 112.67 189.97 112.64 193.00 111.08 192.61 C 110.39 191.90 110.40 191.18 111.09 190.44 Z" fill="#949666" />
<path d="M 108.70 191.40 C 109.31 192.30 109.31 193.44 108.71 194.84 C 107.46 194.30 106.97 191.31 108.70 191.40 Z" fill="#a0a06d" />
<path d="M 104.16 191.37 C 106.40 192.77 106.54 196.55 103.85 197.57 C 103.89 195.50 103.98 193.44 104.16 191.37 Z" fill="#afaa7a" />
<path d="M 85.42 193.26 C 86.37 191.96 88.84 193.13 86.97 194.29 C 85.79 194.48 85.27 194.13 85.42 193.26 Z" fill="#a3a174" />
<path d="M 93.52 192.74 C 93.09 194.20 92.74 195.67 92.53 197.18 C 94.28 196.08 95.99 194.91 97.68 193.72 C 97.44 195.17 97.20 196.61 96.96 198.06 C 93.50 198.04 91.14 197.53 88.13 195.84 C 89.93 194.81 91.73 193.79 93.52 192.74 Z" fill="#b6b284" />
<path d="M 101.32 193.95 C 101.40 195.40 101.40 196.77 100.68 198.08 L 99.40 198.12 C 99.14 196.06 99.54 195.05 101.32 193.95 Z" fill="#b1ad7c" />
<path d="M 51.29 211.13 C 52.03 211.01 52.76 210.89 53.50 210.79 C 53.46 214.90 53.45 219.00 53.53 223.11 C 54.11 223.79 54.69 224.46 55.26 225.13 C 52.80 225.49 50.33 225.50 47.85 225.43 C 49.51 221.62 49.52 216.92 48.01 213.06 C 49.09 212.40 50.18 211.74 51.29 211.13 Z" fill="#2d3a38" />
<path d="M 89.03 210.91 C 89.04 212.60 89.05 214.30 89.06 215.99 C 91.05 215.98 93.04 215.98 95.02 215.98 C 95.31 219.53 95.00 222.55 97.42 225.53 C 95.25 225.57 93.08 225.59 90.92 225.61 C 91.61 222.68 91.65 220.91 90.94 218.00 L 89.02 218.01 C 89.02 219.69 89.02 221.36 89.02 223.03 C 89.57 223.79 90.11 224.54 90.65 225.30 C 88.23 225.60 85.84 225.62 83.41 225.46 C 85.13 221.47 85.84 217.21 83.49 213.29 C 84.10 212.97 84.70 212.65 85.31 212.34 C 86.54 211.85 87.79 211.39 89.03 210.91 Z" fill="#2e3c3c" />
<path d="M 4.78 211.99 C 8.47 212.02 11.81 211.58 15.38 212.75 C 11.95 213.09 8.57 213.27 5.13 213.24 L 4.78 211.99 Z" fill="#1a1e1e" />
<path d="M 76.00 212.04 C 77.92 211.95 79.86 212.14 81.78 212.22 C 81.90 213.88 82.01 215.54 82.12 217.20 C 80.03 215.98 78.18 214.89 75.64 214.93 C 77.51 216.66 79.75 217.57 82.06 218.52 C 82.25 220.68 82.67 222.53 81.53 224.54 C 79.08 226.19 76.08 226.07 73.32 225.47 C 71.30 224.53 72.09 222.60 72.11 220.84 C 75.10 220.96 76.00 225.09 78.74 222.56 C 76.96 221.53 75.13 220.58 73.31 219.63 C 72.94 218.76 72.57 217.89 72.19 217.03 C 73.01 214.82 73.58 212.94 76.00 212.04 Z" fill="#313c3d" />
<path d="M 99.40 212.23 C 100.66 212.12 101.92 212.01 103.18 211.90 C 102.68 213.26 101.35 214.86 101.62 216.35 C 101.75 218.43 101.91 220.52 102.21 222.58 L 103.12 223.76 L 104.47 225.52 C 102.23 225.57 99.99 225.59 97.75 225.58 C 98.77 222.75 99.42 220.58 98.49 217.60 C 98.87 216.14 99.14 214.71 99.29 213.21 L 99.40 212.23 Z" fill="#2f3c3e" />
<path d="M 5.13 213.24 C 8.57 213.27 11.95 213.09 15.38 212.75 L 16.29 212.94 C 16.84 215.03 16.94 216.51 16.42 218.61 C 17.05 219.41 17.68 220.21 18.31 221.00 C 17.62 222.04 17.19 224.58 15.93 224.89 C 12.22 225.27 8.42 224.98 4.70 224.97 C 6.27 220.86 6.50 217.46 5.13 213.24 Z" fill="#2b3a3a" />
<path d="M 36.70 212.67 C 36.75 213.73 36.80 214.80 36.86 215.86 L 39.55 216.16 C 38.59 217.08 37.62 217.97 36.63 218.86 C 36.87 221.95 36.63 221.99 39.49 223.37 C 38.57 224.14 37.65 225.05 36.58 225.59 C 35.17 225.79 32.46 225.77 32.17 223.93 C 31.90 221.36 31.95 218.79 31.45 216.23 C 33.20 215.04 34.93 213.82 36.70 212.67 Z" fill="#2d3b3b" />
<path d="M 44.91 212.60 C 44.97 213.76 45.03 214.92 45.09 216.08 L 47.01 215.92 L 47.02 218.00 L 44.99 218.09 C 45.02 219.36 45.05 220.63 45.08 221.90 C 46.36 222.90 47.25 222.97 47.07 224.85 C 44.94 225.83 43.09 225.66 40.87 225.20 C 40.38 222.24 40.12 219.25 39.92 216.26 C 41.55 214.99 43.19 213.75 44.91 212.60 Z" fill="#2c3a39" />
<path d="M 124.10 212.93 C 128.01 213.13 132.15 212.46 135.73 213.84 C 136.03 214.91 136.32 215.97 136.63 217.04 C 136.39 218.01 136.15 218.99 135.92 219.96 C 133.77 220.24 131.63 220.48 129.47 220.66 C 130.02 222.64 129.62 223.74 131.98 224.44 L 132.00 225.66 C 129.38 225.66 126.74 225.72 124.12 225.57 C 125.27 221.37 125.40 217.12 124.10 212.93 Z" fill="#2e3b3b" />
<path d="M 11.83 214.51 L 12.22 216.18 C 11.61 218.18 9.64 216.97 10.10 215.29 C 10.56 214.33 11.14 214.07 11.83 214.51 Z" fill="#c1cbcb" />
<path d="M 24.90 215.20 C 26.25 215.58 27.60 215.99 28.95 216.39 C 29.24 219.04 28.11 221.74 30.82 223.30 C 29.09 226.69 24.82 224.99 21.77 225.51 C 20.82 225.28 19.87 225.05 18.93 224.82 C 18.96 223.60 18.98 222.39 19.01 221.18 C 20.17 220.66 21.33 220.15 22.49 219.66 C 23.49 219.21 24.49 218.76 25.49 218.32 C 23.39 215.96 22.61 218.04 20.33 218.82 C 19.72 218.26 19.13 217.69 18.54 217.10 C 20.60 216.27 22.72 215.63 24.90 215.20 Z" fill="#2f3c3c" />
<path d="M 129.73 215.17 C 131.43 214.87 132.55 216.45 131.84 217.99 C 129.88 218.44 128.98 216.87 129.73 215.17 Z" fill="#d5dbdc" />
<path d="M 59.52 215.57 C 59.34 216.85 59.19 218.14 59.05 219.42 C 60.62 218.59 60.77 216.96 61.61 215.43 C 63.03 216.46 64.34 217.60 65.62 218.80 C 63.44 219.61 61.22 220.10 58.93 220.50 C 59.62 221.33 60.27 222.15 61.03 222.92 C 62.48 222.65 63.92 222.20 65.36 221.83 C 64.85 222.90 64.33 223.97 63.81 225.05 C 61.03 225.74 59.01 225.82 56.21 225.11 C 55.88 223.70 55.53 222.30 55.14 220.90 C 55.49 219.61 55.83 218.31 56.20 217.02 C 57.29 216.51 58.40 216.03 59.52 215.57 Z" fill="#2e3938" />
<path d="M 101.62 216.35 C 102.09 216.38 102.56 216.42 103.03 216.45 C 103.01 218.90 102.97 221.31 103.12 223.76 L 102.21 222.58 C 101.91 220.52 101.75 218.43 101.62 216.35 Z" fill="#152023" />
<path d="M 115.33 215.93 C 116.16 217.68 116.89 219.38 117.08 221.32 C 116.56 222.52 116.08 223.72 115.63 224.95 C 113.63 225.47 111.62 225.95 109.60 226.42 C 110.43 227.34 111.26 228.24 112.09 229.15 C 109.16 229.71 106.59 229.76 103.66 229.13 C 104.43 228.59 105.21 228.07 105.99 227.54 C 105.99 224.41 105.99 221.29 106.00 218.16 L 103.67 217.60 C 106.48 214.79 111.62 216.33 115.33 215.93 Z" fill="#2c3b3c" />
<path d="M 140.07 215.89 C 141.20 216.02 142.33 216.16 143.46 216.32 C 144.28 216.20 145.11 216.10 145.94 216.03 C 147.57 217.10 146.83 218.79 147.13 220.50 C 146.24 219.98 145.36 219.44 144.50 218.87 L 143.87 218.55 L 143.31 218.34 C 142.78 221.03 142.39 223.58 145.45 224.77 C 143.29 226.60 139.48 225.58 136.88 225.31 C 137.40 224.60 137.93 223.90 138.46 223.20 C 138.31 221.13 138.08 219.10 137.66 217.07 C 138.46 216.67 139.26 216.27 140.07 215.89 Z" fill="#313d3e" />
<path d="M 155.86 215.86 C 156.96 216.89 158.28 217.89 159.01 219.21 C 159.17 221.05 158.18 223.01 157.69 224.77 C 154.32 226.06 152.45 226.43 148.96 225.13 C 148.25 222.59 146.96 219.37 149.15 217.21 C 150.49 215.28 153.77 216.16 155.86 215.86 Z" fill="#2e3c3b" />
<path d="M 158.56 216.05 C 160.82 216.00 163.07 215.97 165.33 215.93 C 165.20 217.15 165.07 218.37 164.95 219.60 C 165.52 220.08 166.10 220.56 166.68 221.05 C 167.02 220.17 167.37 219.30 167.72 218.43 C 167.26 217.63 166.80 216.83 166.34 216.03 C 168.38 216.01 170.41 216.00 172.45 215.99 C 169.10 219.09 167.76 223.56 164.39 226.53 C 162.54 222.96 160.71 219.45 158.56 216.05 Z" fill="#293a39" />
<path d="M 179.86 215.86 C 180.26 216.90 180.64 217.95 181.00 219.00 C 180.15 218.64 179.54 218.96 179.15 219.96 C 178.11 220.38 177.07 220.81 176.04 221.24 C 176.87 222.04 177.71 222.83 178.54 223.63 C 179.51 222.90 180.48 222.17 181.45 221.45 C 181.19 222.85 181.30 224.14 180.17 225.20 C 178.38 226.48 175.73 225.87 173.67 225.74 C 173.11 225.04 172.55 224.33 171.98 223.63 C 171.98 221.96 172.00 220.28 172.08 218.61 L 172.43 218.03 C 174.74 215.98 176.93 215.97 179.86 215.86 Z" fill="#2d3b38" />
<path d="M 188.50 216.40 C 190.25 216.14 192.00 216.01 193.76 215.92 C 194.42 218.31 194.68 220.64 194.76 223.12 C 195.25 224.02 195.74 224.92 196.23 225.82 C 191.49 225.87 186.74 225.86 182.00 225.80 C 182.69 224.58 183.56 223.35 183.98 222.01 C 184.18 220.37 183.37 218.64 182.89 217.08 C 184.90 216.36 186.36 215.82 188.50 216.40 Z" fill="#2f3d3d" />
<path d="M 110.05 217.48 C 112.69 219.06 113.00 223.08 110.09 224.53 C 109.98 222.18 109.97 219.84 110.05 217.48 Z" fill="#e3e7e7" />
<path d="M 143.87 218.55 L 144.50 218.87 L 144.19 218.69 L 143.87 218.55 Z" fill="#000405" />
<path d="M 151.88 218.08 L 154.09 218.11 L 154.15 220.00 C 154.05 221.52 153.92 223.04 153.77 224.56 C 151.79 222.72 152.03 220.56 151.88 218.08 Z" fill="#f5f8f9" />
<path d="M 154.09 218.11 C 155.67 218.33 155.69 218.96 154.15 220.00 L 154.09 218.11 Z" fill="#0a0e0f" />
<path d="M 172.09 218.25 L 172.43 218.03 L 172.08 218.61 L 172.09 218.25 Z" fill="#000302" />
<path d="M 176.22 218.11 L 177.00 217.73 L 177.78 218.10 L 177.77 218.87 L 176.99 219.25 L 176.21 218.89 L 176.22 218.11 Z" fill="#edf7f7" />
<path d="M 188.07 217.48 C 188.80 218.23 189.51 219.01 190.20 219.80 C 189.95 221.22 189.91 222.65 190.08 224.08 L 188.68 225.09 C 187.56 222.57 187.97 220.13 188.07 217.48 Z" fill="#eef0f1" />
<path d="M 10.35 218.94 C 11.36 218.94 12.27 219.41 13.07 220.36 C 12.77 221.41 12.39 222.45 11.96 223.46 C 11.26 222.91 10.58 222.35 9.90 221.78 C 10.02 220.83 10.17 219.88 10.35 218.94 Z" fill="#dbe0e0" />
<path d="M 181.00 219.00 L 181.09 219.80 L 179.15 219.96 C 179.54 218.96 180.15 218.64 181.00 219.00 Z" fill="#090e10" />
<path d="M 25.06 220.38 C 25.28 221.55 24.53 223.42 23.09 222.68 C 22.24 221.32 23.86 220.40 25.06 220.38 Z" fill="#bbbfc2" />
<path d="M 190.20 219.80 C 191.60 221.11 191.86 222.98 190.08 224.08 C 189.91 222.65 189.95 221.22 190.20 219.80 Z" fill="#151b1c" /></svg>